<svg width="103" height="102" viewBox="0 0 103 102" fill="none" xmlns="http://www.w3.org/2000/svg">
<g filter="url(#filter0_d_1211_3549)">
<rect x="2.38104" y="1.48828" width="98" height="98" rx="49" fill="#FEFAFD"/>
<rect x="2.58521" y="1.69245" width="97.5917" height="97.5917" rx="48.7958" stroke="#E5E7EB" stroke-width="0.408333"/>
<path d="M53.6311 60.2383C53.6311 60.6833 53.4991 61.1183 53.2519 61.4883C53.0046 61.8583 52.6532 62.1467 52.2421 62.317C51.831 62.4873 51.3786 62.5319 50.9421 62.445C50.5056 62.3582 50.1047 62.1439 49.7901 61.8293C49.4754 61.5146 49.2611 61.1137 49.1743 60.6772C49.0875 60.2408 49.132 59.7884 49.3023 59.3772C49.4726 58.9661 49.761 58.6147 50.131 58.3675C50.501 58.1202 50.936 57.9883 51.3811 57.9883C51.9778 57.9883 52.5501 58.2253 52.972 58.6473C53.394 59.0692 53.6311 59.6415 53.6311 60.2383ZM51.3811 39.9883C47.2448 39.9883 43.8811 43.0164 43.8811 46.7383V47.4883C43.8811 47.8861 44.0391 48.2676 44.3204 48.5489C44.6017 48.8302 44.9832 48.9883 45.3811 48.9883C45.7789 48.9883 46.1604 48.8302 46.4417 48.5489C46.723 48.2676 46.8811 47.8861 46.8811 47.4883V46.7383C46.8811 44.6758 48.9004 42.9883 51.3811 42.9883C53.8617 42.9883 55.8811 44.6758 55.8811 46.7383C55.8811 48.8008 53.8617 50.4883 51.3811 50.4883C50.9832 50.4883 50.6017 50.6463 50.3204 50.9276C50.0391 51.2089 49.8811 51.5905 49.8811 51.9883V53.4883C49.8811 53.8861 50.0391 54.2676 50.3204 54.5489C50.6017 54.8302 50.9832 54.9883 51.3811 54.9883C51.7789 54.9883 52.1604 54.8302 52.4417 54.5489C52.723 54.2676 52.8811 53.8861 52.8811 53.4883V53.3533C56.3011 52.7252 58.8811 49.997 58.8811 46.7383C58.8811 43.0164 55.5173 39.9883 51.3811 39.9883ZM70.8811 50.4883C70.8811 54.345 69.7374 58.1151 67.5947 61.3219C65.452 64.5287 62.4065 67.028 58.8434 68.5039C55.2802 69.9798 51.3594 70.366 47.5768 69.6136C43.7942 68.8612 40.3196 67.004 37.5925 64.2769C34.8653 61.5497 33.0082 58.0752 32.2557 54.2925C31.5033 50.5099 31.8895 46.5891 33.3654 43.026C34.8413 39.4628 37.3407 36.4173 40.5474 34.2746C43.7542 32.1319 47.5243 30.9883 51.3811 30.9883C56.5511 30.9937 61.5078 33.05 65.1636 36.7057C68.8194 40.3615 70.8756 45.3182 70.8811 50.4883ZM67.8811 50.4883C67.8811 47.2249 66.9133 44.0348 65.1003 41.3214C63.2873 38.608 60.7103 36.4931 57.6953 35.2443C54.6803 33.9954 51.3627 33.6687 48.1621 34.3053C44.9614 34.942 42.0214 36.5135 39.7138 38.821C37.4062 41.1286 35.8347 44.0686 35.1981 47.2693C34.5614 50.47 34.8882 53.7876 36.137 56.8026C37.3859 59.8175 39.5007 62.3945 42.2141 64.2075C44.9276 66.0206 48.1177 66.9883 51.3811 66.9883C55.7556 66.9833 59.9496 65.2433 63.0428 62.1501C66.1361 59.0568 67.8761 54.8628 67.8811 50.4883Z" fill="#63357E"/>
</g>
<defs>
<filter id="filter0_d_1211_3549" x="0.747709" y="0.671615" width="101.267" height="101.267" filterUnits="userSpaceOnUse" color-interpolation-filters="sRGB">
<feFlood flood-opacity="0" result="BackgroundImageFix"/>
<feColorMatrix in="SourceAlpha" type="matrix" values="0 0 0 0 0 0 0 0 0 0 0 0 0 0 0 0 0 0 127 0" result="hardAlpha"/>
<feOffset dy="0.816667"/>
<feGaussianBlur stdDeviation="0.816667"/>
<feComposite in2="hardAlpha" operator="out"/>
<feColorMatrix type="matrix" values="0 0 0 0 0 0 0 0 0 0 0 0 0 0 0 0 0 0 0.05 0"/>
<feBlend mode="normal" in2="BackgroundImageFix" result="effect1_dropShadow_1211_3549"/>
<feBlend mode="normal" in="SourceGraphic" in2="effect1_dropShadow_1211_3549" result="shape"/>
</filter>
</defs>
</svg>
