<svg width="38" height="9" viewBox="0 0 38 9" fill="none" xmlns="http://www.w3.org/2000/svg">
<path d="M2.93383 1.6701V7.11059C2.93383 7.47329 2.99884 7.81912 3.12075 8.12277C3.2589 8.43486 3.42957 8.72165 3.649 8.99157H2.7144C2.23491 8.99157 1.7798 8.86504 1.34907 8.612C0.455109 8.17338 0 7.38894 0 6.2418V1.6701C0 1.13027 0.130031 0.725398 0.390093 0.447048C0.650155 0.151827 1.01587 0 1.48723 0C1.91796 0 2.27554 0.151827 2.54373 0.447048C2.80379 0.725398 2.93383 1.13871 2.93383 1.6701ZM13.4338 0.868791C14.2872 1.56045 14.7098 2.5895 14.6935 3.95595V7.32146C14.6935 7.84442 14.5716 8.2493 14.3278 8.52765C14.0596 8.83974 13.6858 8.99157 13.2307 8.99157C12.7837 8.99157 12.4261 8.83974 12.1498 8.52765C11.906 8.2493 11.7841 7.84442 11.7841 7.32146V3.95595C11.7841 3.46673 11.6703 3.07029 11.4346 2.77507C11.1745 2.46298 10.7926 2.31115 10.2968 2.31115C9.79296 2.31115 9.411 2.46298 9.15906 2.77507C8.93151 3.07029 8.8096 3.46673 8.8096 3.95595V7.32146C8.8096 7.84442 8.6877 8.2493 8.44389 8.52765C8.1757 8.83974 7.80999 8.99157 7.36301 8.99157C6.89977 8.99157 6.53406 8.83974 6.26587 8.52765C6.02206 8.2493 5.90016 7.84442 5.90016 7.32146V3.95595C5.89203 2.57263 6.30651 1.54358 7.15171 0.868791C7.88313 0.286785 8.93151 0 10.2887 0C11.6459 0 12.6943 0.286785 13.4338 0.868791ZM31.4675 0.447048C31.7276 0.742268 31.8576 1.15558 31.8576 1.6701V5.03561C31.8576 6.40206 31.435 7.42268 30.5979 8.1059C29.8503 8.69635 28.8019 8.99157 27.4609 8.99157C26.2256 8.99157 25.2342 8.73852 24.4865 8.23243C23.7632 8.73852 22.7961 8.99157 21.5689 8.99157C20.2117 8.99157 19.1552 8.69635 18.4075 8.1059C17.5786 7.43112 17.1641 6.4105 17.1641 5.03561V1.6701C17.1641 1.13027 17.286 0.725398 17.5298 0.447048C17.7899 0.151827 18.1556 0 18.6269 0C19.0739 0 19.4315 0.151827 19.7078 0.447048C19.9516 0.725398 20.0735 1.13871 20.0735 1.6701V4.99344C20.0735 5.5164 20.1873 5.92127 20.423 6.19963C20.6831 6.51171 21.065 6.66354 21.5608 6.66354C22.0646 6.66354 22.4385 6.51171 22.6823 6.19963C22.9098 5.92127 23.0318 5.5164 23.0318 4.99344V1.6701C23.0318 1.13027 23.1618 0.725398 23.4218 0.447048C23.6819 0.151827 24.0476 0 24.519 0C24.966 0 25.3235 0.151827 25.5999 0.447048C25.8437 0.725398 25.9656 1.13871 25.9656 1.6701V4.99344C25.9656 5.5164 26.0794 5.92127 26.315 6.19963C26.5751 6.51171 26.9571 6.66354 27.4528 6.66354C27.9567 6.66354 28.3305 6.51171 28.5743 6.19963C28.8019 5.92127 28.9238 5.5164 28.9238 4.99344V1.6701C28.9238 1.13027 29.0538 0.725398 29.3139 0.447048C29.5821 0.151827 29.9397 0 30.3704 0C30.8417 0 31.2075 0.151827 31.4675 0.447048ZM34.8077 1.8641C34.8077 1.50141 34.7427 1.15558 34.6208 0.851921C34.4826 0.556701 34.3119 0.269916 34.0925 0.00843474H35.0271L35.4335 0.0759137C35.7829 0.101218 36.0999 0.202437 36.3681 0.371134C37.2783 0.809747 37.7334 1.60262 37.7334 2.7582V7.3299C37.7334 7.85286 37.5952 8.25773 37.327 8.53608C37.0832 8.84817 36.7256 9 36.2462 9C35.8073 9 35.4578 8.84817 35.1897 8.53608C34.9296 8.25773 34.7996 7.85286 34.7996 7.3299V1.8641H34.8077Z" fill="white"/>
</svg>
