<svg width="103" height="102" viewBox="0 0 103 102" fill="none" xmlns="http://www.w3.org/2000/svg">
<g filter="url(#filter0_d_1114_2717)">
<rect x="2.38104" y="1.48828" width="98" height="98" rx="49" fill="#FEFAFD"/>
<rect x="2.58521" y="1.69245" width="97.5917" height="97.5917" rx="48.7958" stroke="#E5E7EB" stroke-width="0.408333"/>
<g clip-path="url(#clip0_1114_2717)">
<path d="M63.631 71.9258H39.131C37.5066 71.9258 35.9487 71.2805 34.8 70.1318C33.6514 68.9831 33.006 67.4252 33.006 65.8008V47.4258C33.006 45.8013 33.6514 44.2434 34.8 43.0948C35.9487 41.9461 37.5066 41.3008 39.131 41.3008H49.8498C50.2559 41.3008 50.6454 41.4621 50.9325 41.7493C51.2197 42.0364 51.381 42.4259 51.381 42.832C51.381 43.2381 51.2197 43.6276 50.9325 43.9148C50.6454 44.202 50.2559 44.3633 49.8498 44.3633H39.131C38.3188 44.3633 37.5399 44.6859 36.9655 45.2603C36.3912 45.8346 36.0685 46.6136 36.0685 47.4258V65.8008C36.0685 66.613 36.3912 67.392 36.9655 67.9663C37.5399 68.5406 38.3188 68.8633 39.131 68.8633H63.631C64.4433 68.8633 65.2222 68.5406 65.7966 67.9663C66.3709 67.392 66.6935 66.613 66.6935 65.8008V53.5508C66.6935 53.1447 66.8549 52.7552 67.142 52.468C67.4292 52.1809 67.8187 52.0195 68.2248 52.0195C68.6309 52.0195 69.0204 52.1809 69.3076 52.468C69.5947 52.7552 69.756 53.1447 69.756 53.5508V65.8008C69.756 67.4252 69.1107 68.9831 67.9621 70.1318C66.8134 71.2805 65.2555 71.9258 63.631 71.9258Z" fill="#63357E"/>
<path d="M34.5373 64.2695H31.4748C30.2565 64.2695 29.088 63.7855 28.2265 62.9241C27.365 62.0626 26.881 60.8941 26.881 59.6758V50.4883C26.881 50.0822 27.0424 49.6927 27.3295 49.4055C27.6167 49.1184 28.0062 48.957 28.4123 48.957H34.5373C34.9434 48.957 35.3329 49.1184 35.62 49.4055C35.9072 49.6927 36.0685 50.0822 36.0685 50.4883V62.7383C36.0685 63.1444 35.9072 63.5339 35.62 63.821C35.3329 64.1082 34.9434 64.2695 34.5373 64.2695ZM29.9435 52.0195V59.6758C29.9435 60.0819 30.1049 60.4714 30.392 60.7585C30.6792 61.0457 31.0687 61.207 31.4748 61.207H33.006V52.0195H29.9435Z" fill="#63357E"/>
<path d="M28.4123 61.207C28.0062 61.207 27.6167 61.0457 27.3295 60.7585C27.0424 60.4714 26.881 60.0819 26.881 59.6758V35.1758C26.881 34.7697 27.0424 34.3802 27.3295 34.093C27.6167 33.8059 28.0062 33.6445 28.4123 33.6445C28.8184 33.6445 29.2079 33.8059 29.495 34.093C29.7822 34.3802 29.9435 34.7697 29.9435 35.1758V59.6758C29.9435 60.0819 29.7822 60.4714 29.495 60.7585C29.2079 61.0457 28.8184 61.207 28.4123 61.207Z" fill="#63357E"/>
<path d="M59.0373 50.4883C58.2104 50.4883 58.1339 50.2127 55.347 47.4258H52.9123C51.694 47.4258 50.5255 46.9418 49.664 46.0803C48.8025 45.2188 48.3185 44.0504 48.3185 42.832V33.6445C48.3185 32.4262 48.8025 31.2578 49.664 30.3963C50.5255 29.5348 51.694 29.0508 52.9123 29.0508H71.2873C72.5056 29.0508 73.6741 29.5348 74.5356 30.3963C75.3971 31.2578 75.881 32.4262 75.881 33.6445V42.832C75.881 44.0504 75.3971 45.2188 74.5356 46.0803C73.6741 46.9418 72.5056 47.4258 71.2873 47.4258H62.7276C59.9714 50.182 59.8795 50.4883 59.0373 50.4883ZM52.9123 32.1133C52.5062 32.1133 52.1167 32.2746 51.8295 32.5618C51.5424 32.8489 51.381 33.2384 51.381 33.6445V42.832C51.381 43.2381 51.5424 43.6276 51.8295 43.9148C52.1167 44.202 52.5062 44.3633 52.9123 44.3633H55.9748C56.817 44.3633 57.0314 44.7767 59.0373 46.798L61.0126 44.8073C61.1557 44.6654 61.3254 44.5531 61.5119 44.4769C61.6985 44.4007 61.8983 44.3621 62.0998 44.3633H71.2873C71.6934 44.3633 72.0829 44.202 72.3701 43.9148C72.6572 43.6276 72.8185 43.2381 72.8185 42.832V33.6445C72.8185 33.2384 72.6572 32.8489 72.3701 32.5618C72.0829 32.2746 71.6934 32.1133 71.2873 32.1133H52.9123Z" fill="#AD2184"/>
<path d="M48.3185 58.1446C48.117 58.1457 47.9172 58.1071 47.7307 58.0309C47.5441 57.9547 47.3744 57.8424 47.2313 57.7005C46.9734 57.4385 46.6659 57.2304 46.3268 57.0883C45.9877 56.9463 45.6237 56.8731 45.256 56.8731C44.8883 56.8731 44.5243 56.9463 44.1852 57.0883C43.8461 57.2304 43.5386 57.4385 43.2807 57.7005C42.9924 57.9889 42.6013 58.1508 42.1935 58.1508C41.7857 58.1508 41.3947 57.9889 41.1063 57.7005C40.818 57.4122 40.656 57.0211 40.656 56.6133C40.656 56.2056 40.818 55.8145 41.1063 55.5261C42.2084 54.4284 43.7005 53.812 45.256 53.812C46.8115 53.812 48.3037 54.4284 49.4057 55.5261C49.6217 55.7403 49.7689 56.014 49.8288 56.3122C49.8886 56.6104 49.8582 56.9196 49.7416 57.2005C49.625 57.4814 49.4273 57.7212 49.1739 57.8894C48.9204 58.0575 48.6227 58.1463 48.3185 58.1446Z" fill="#63357E"/>
<path d="M60.8288 58.1446C60.6273 58.1457 60.4275 58.1071 60.241 58.0309C60.0544 57.9547 59.8847 57.8424 59.7416 57.7005C59.4837 57.4385 59.1763 57.2304 58.8371 57.0883C58.498 56.9463 58.134 56.8731 57.7663 56.8731C57.3987 56.8731 57.0347 56.9463 56.6955 57.0883C56.3564 57.2304 56.0489 57.4385 55.791 57.7005C55.5027 57.9889 55.1116 58.1508 54.7038 58.1508C54.2961 58.1508 53.905 57.9889 53.6166 57.7005C53.3283 57.4122 53.1663 57.0211 53.1663 56.6133C53.1663 56.2056 53.3283 55.8145 53.6166 55.5261C54.7187 54.4284 56.2108 53.812 57.7663 53.812C59.3218 53.812 60.814 54.4284 61.916 55.5261C62.132 55.7403 62.2792 56.014 62.3391 56.3122C62.3989 56.6104 62.3686 56.9196 62.2519 57.2005C62.1353 57.4814 61.9377 57.7212 61.6842 57.8894C61.4308 58.0575 61.133 58.1463 60.8288 58.1446Z" fill="#63357E"/>
<path d="M55.9748 39.7695C55.6719 39.7695 55.3759 39.6797 55.1241 39.5115C54.8723 39.3432 54.676 39.1041 54.5601 38.8243C54.4442 38.5445 54.4139 38.2366 54.473 37.9396C54.532 37.6425 54.6779 37.3697 54.892 37.1555C55.1062 36.9414 55.379 36.7955 55.6761 36.7365C55.9731 36.6774 56.281 36.7077 56.5608 36.8236C56.8406 36.9395 57.0797 37.1358 57.248 37.3876C57.4162 37.6394 57.506 37.9354 57.506 38.2383C57.506 38.6444 57.3447 39.0339 57.0576 39.321C56.7704 39.6082 56.3809 39.7695 55.9748 39.7695Z" fill="#AD2184"/>
<path d="M62.0998 39.7695C61.7969 39.7695 61.5009 39.6797 61.2491 39.5115C60.9973 39.3432 60.801 39.1041 60.6851 38.8243C60.5692 38.5445 60.5389 38.2366 60.598 37.9396C60.657 37.6425 60.8029 37.3697 61.017 37.1555C61.2312 36.9414 61.504 36.7955 61.8011 36.7365C62.0981 36.6774 62.406 36.7077 62.6858 36.8236C62.9656 36.9395 63.2047 37.1358 63.373 37.3876C63.5412 37.6394 63.631 37.9354 63.631 38.2383C63.631 38.6444 63.4697 39.0339 63.1826 39.321C62.8954 39.6082 62.5059 39.7695 62.0998 39.7695Z" fill="#AD2184"/>
<path d="M68.2248 39.7695C67.9219 39.7695 67.6259 39.6797 67.3741 39.5115C67.1223 39.3432 66.926 39.1041 66.8101 38.8243C66.6942 38.5445 66.6639 38.2366 66.723 37.9396C66.782 37.6425 66.9279 37.3697 67.142 37.1555C67.3562 36.9414 67.629 36.7955 67.9261 36.7365C68.2231 36.6774 68.531 36.7077 68.8108 36.8236C69.0906 36.9395 69.3297 37.1358 69.498 37.3876C69.6662 37.6394 69.756 37.9354 69.756 38.2383C69.756 38.6444 69.5947 39.0339 69.3076 39.321C69.0204 39.6082 68.6309 39.7695 68.2248 39.7695Z" fill="#AD2184"/>
<path d="M55.9748 65.8008H46.7873C46.3812 65.8008 45.9917 65.6395 45.7045 65.3523C45.4174 65.0651 45.256 64.6756 45.256 64.2695C45.256 63.8634 45.4174 63.4739 45.7045 63.1868C45.9917 62.8996 46.3812 62.7383 46.7873 62.7383H55.9748C56.3809 62.7383 56.7704 62.8996 57.0576 63.1868C57.3447 63.4739 57.506 63.8634 57.506 64.2695C57.506 64.6756 57.3447 65.0651 57.0576 65.3523C56.7704 65.6395 56.3809 65.8008 55.9748 65.8008Z" fill="#63357E"/>
</g>
</g>
<defs>
<filter id="filter0_d_1114_2717" x="0.747709" y="0.671615" width="101.267" height="101.267" filterUnits="userSpaceOnUse" color-interpolation-filters="sRGB">
<feFlood flood-opacity="0" result="BackgroundImageFix"/>
<feColorMatrix in="SourceAlpha" type="matrix" values="0 0 0 0 0 0 0 0 0 0 0 0 0 0 0 0 0 0 127 0" result="hardAlpha"/>
<feOffset dy="0.816667"/>
<feGaussianBlur stdDeviation="0.816667"/>
<feComposite in2="hardAlpha" operator="out"/>
<feColorMatrix type="matrix" values="0 0 0 0 0 0 0 0 0 0 0 0 0 0 0 0 0 0 0.05 0"/>
<feBlend mode="normal" in2="BackgroundImageFix" result="effect1_dropShadow_1114_2717"/>
<feBlend mode="normal" in="SourceGraphic" in2="effect1_dropShadow_1114_2717" result="shape"/>
</filter>
<clipPath id="clip0_1114_2717">
<rect width="49" height="49" fill="white" transform="translate(26.881 25.9883)"/>
</clipPath>
</defs>
</svg>
