<svg width="24" height="24" viewBox="0 0 24 24" fill="none" xmlns="http://www.w3.org/2000/svg">
<path fill-rule="evenodd" clip-rule="evenodd" d="M22.75 12.5V10.5C22.7501 9.99304 22.61 9.49592 22.3453 9.06356C22.0806 8.6312 21.7016 8.28043 21.25 8.04999V15C21.7092 14.7658 22.0933 14.4072 22.3586 13.9651C22.6238 13.5231 22.7594 13.0154 22.75 12.5ZM1.24999 12.5V10.5C1.2499 9.99304 1.38994 9.49592 1.65465 9.06356C1.91936 8.6312 2.29844 8.28043 2.74999 8.04999V15C2.29078 14.7658 1.90665 14.4072 1.64143 13.9651C1.37621 13.5231 1.24057 13.0154 1.24999 12.5ZM19.75 16V7.99999C19.75 7.27065 19.4603 6.57117 18.9445 6.05545C18.4288 5.53972 17.7293 5.24999 17 5.24999H15.75V1.99999C15.75 1.80108 15.671 1.61031 15.5303 1.46966C15.3897 1.32901 15.1989 1.24999 15 1.24999C14.8011 1.24999 14.6103 1.32901 14.4697 1.46966C14.329 1.61031 14.25 1.80108 14.25 1.99999V5.24999H6.99999C6.27065 5.24999 5.57118 5.53972 5.05545 6.05545C4.53973 6.57117 4.24999 7.27065 4.24999 7.99999V16C4.24999 16.7293 4.53973 17.4288 5.05545 17.9445C5.57118 18.4603 6.27065 18.75 6.99999 18.75H7.59V19.87C7.58879 20.1089 7.65718 20.343 7.78682 20.5436C7.91645 20.7443 8.10172 20.9029 8.31999 21C8.47879 21.0924 8.6567 21.1472 8.83999 21.16C9.13851 21.1575 9.42611 21.0475 9.64999 20.85L12.08 18.75H17C17.7293 18.75 18.4288 18.4603 18.9445 17.9445C19.4603 17.4288 19.75 16.7293 19.75 16ZM10.6276 13.5655C10.6142 14.3129 10.6008 15.0613 11.177 15.6843C9.78606 15.9426 8.52274 15.3586 8.28211 14.003C8.26226 13.8866 8.25252 13.7686 8.25302 13.6503L8.25204 13.0282C8.25015 11.8672 8.24825 10.7064 8.25302 9.54534C8.24077 9.33119 8.28246 9.11742 8.37391 8.92554C8.46536 8.73365 8.60334 8.5704 8.77399 8.4522C8.94464 8.334 9.14193 8.26502 9.34605 8.25218C9.55017 8.23935 9.7539 8.28311 9.93679 8.37907C10.4742 8.6246 10.6207 9.12294 10.6263 9.67781C10.6337 10.4089 10.6327 11.1401 10.6316 11.8713C10.631 12.3144 10.6303 12.7576 10.6316 13.2009C10.632 13.322 10.6298 13.4438 10.6276 13.5655ZM13.3725 10.4345C13.3858 9.68706 13.3992 8.93869 12.8231 8.31573C14.2143 8.05737 15.4773 8.64136 15.7179 9.99697C15.7378 10.1134 15.7475 10.2314 15.747 10.3497L15.748 10.9715V10.9717V10.9718C15.7499 12.1328 15.7518 13.2936 15.747 14.4546C15.7593 14.6688 15.7176 14.8826 15.6261 15.0744C15.5347 15.2663 15.3967 15.4296 15.2261 15.5478C15.0554 15.666 14.8581 15.735 14.654 15.7478C14.4499 15.7606 14.2461 15.7169 14.0633 15.6209C13.5258 15.3754 13.3794 14.877 13.3738 14.3222C13.3663 13.5911 13.3674 12.86 13.3684 12.1289V12.1288V12.1288C13.3691 11.6856 13.3697 11.2424 13.3685 10.7991C13.3681 10.678 13.3703 10.5562 13.3725 10.4345Z" fill="#AD2184"/>
</svg>
