<svg width="24" height="24" viewBox="0 0 24 24" fill="none" xmlns="http://www.w3.org/2000/svg">
<path opacity="0.2" d="M22.3312 8.22094L12.5812 19.98C12.5108 20.0646 12.4227 20.1327 12.3231 20.1794C12.2234 20.2261 12.1147 20.2503 12.0047 20.2503C11.8946 20.2503 11.7859 20.2261 11.6863 20.1794C11.5866 20.1327 11.4985 20.0646 11.4281 19.98L1.66873 8.22094C1.60545 8.14487 1.55829 8.05673 1.53011 7.96187C1.50194 7.86702 1.49333 7.76743 1.50481 7.66914C1.5163 7.57086 1.54764 7.47594 1.59693 7.39013C1.64622 7.30433 1.71243 7.22944 1.79154 7.17001C4.73209 4.95056 8.31586 3.74991 12 3.74991C15.6841 3.74991 19.2679 4.95056 22.2084 7.17001C22.2875 7.22944 22.3537 7.30433 22.403 7.39013C22.4523 7.47594 22.4837 7.57086 22.4951 7.66914C22.5066 7.76743 22.498 7.86702 22.4698 7.96187C22.4417 8.05673 22.3945 8.14487 22.3312 8.22094Z" fill="#8848AC"/>
<path d="M23.2397 7.58531C23.2162 7.38621 23.1529 7.19388 23.0535 7.01976C22.9541 6.84565 22.8207 6.69333 22.6612 6.57188C19.5971 4.24097 15.8499 2.98552 12 3C8.15008 2.98552 4.40285 4.24097 1.33873 6.57188C1.17923 6.69333 1.04581 6.84565 0.946435 7.01976C0.847057 7.19388 0.783752 7.38621 0.760293 7.58531C0.736714 7.78392 0.753991 7.98526 0.811062 8.17695C0.868134 8.36864 0.963794 8.54663 1.09217 8.7L10.8422 20.4591C10.9831 20.6293 11.1601 20.7661 11.3603 20.8596C11.5605 20.9532 11.779 21.0011 12 21C12.2203 21.0006 12.4381 20.9524 12.6376 20.8588C12.8371 20.7653 13.0135 20.6288 13.154 20.4591L22.904 8.7C23.0331 8.54693 23.1294 8.36907 23.1871 8.17737C23.2449 7.98567 23.2627 7.78418 23.2397 7.58531ZM12 19.5L2.25842 7.75688C5.05972 5.63071 8.48321 4.48614 12 4.5C15.5168 4.48614 18.9402 5.63071 21.7415 7.75688L12 19.5Z" fill="#63357E"/>
</svg>
